<svg xmlns="http://www.w3.org/2000/svg" width="1200" height="675" viewBox="0 0 1200 675">
<defs>
<linearGradient id="g" x1="0" y1="0" x2="1" y2="1"><stop offset="0" stop-color="#1d4ed8"/><stop offset=".55" stop-color="#4338ca"/><stop offset="1" stop-color="#7e22ce"/></linearGradient>
<filter id="b" x="-50%" y="-50%" width="200%" height="200%"><feGaussianBlur stdDeviation="60"/></filter>
<radialGradient id="glow"><stop offset="0" stop-color="#fff" stop-opacity=".55"/><stop offset="1" stop-color="#fff" stop-opacity="0"/></radialGradient>
</defs>
<rect width="1200" height="675" fill="url(#g)"/>
<circle cx="332" cy="537" r="231" fill="#60a5fa" opacity="0.47" filter="url(#b)"/>
<circle cx="986" cy="285" r="127" fill="#38bdf8" opacity="0.53" filter="url(#b)"/>
<circle cx="1016" cy="601" r="222" fill="#a78bfa" opacity="0.37" filter="url(#b)"/>
<circle cx="139" cy="287" r="85" fill="#60a5fa" opacity="0.54" filter="url(#b)"/>
<circle cx="1014" cy="587" r="227" fill="#a78bfa" opacity="0.45" filter="url(#b)"/>
<circle cx="713" cy="548" r="106" fill="#60a5fa" opacity="0.54" filter="url(#b)"/>
<circle cx="1180" cy="547" r="103" fill="#c084fc" opacity="0.38" filter="url(#b)"/>
<circle cx="575" cy="436" r="117" fill="#c084fc" opacity="0.32" filter="url(#b)"/>
<circle cx="19" cy="43" r="138" fill="#38bdf8" opacity="0.34" filter="url(#b)"/>
<polyline points="0,223.9 40,216.3 80,215.1 120,220.5 160,232.0 200,248.7 240,269.6 280,292.9 320,317.0 360,340.2 400,360.7 440,377.0 480,387.9 520,392.6 560,390.7 600,382.5 640,368.4 680,349.6 720,327.4 760,303.4 800,279.5 840,257.4 880,238.7 920,224.8 960,216.7 1000,215.0 1040,219.8 1080,230.9 1120,247.3 1160,267.8 1200,291.1 1240,315.2" fill="none" stroke="#fff" stroke-opacity="0.10" stroke-width="2"/>
<polyline points="0,320.9 40,322.4 80,327.0 120,334.3 160,343.9 200,355.0 240,366.8 280,378.4 320,389.0 360,397.8 400,404.1 440,407.5 480,407.8 520,404.9 560,398.9 600,390.5 640,380.1 680,368.6 720,356.8 760,345.6 800,335.7 840,328.0 880,322.9 920,320.9 960,322.2 1000,326.5 1040,333.7 1080,343.1 1120,354.1 1160,365.8 1200,377.5 1240,388.2" fill="none" stroke="#fff" stroke-opacity="0.13" stroke-width="3"/>
<polyline points="0,472.7 40,477.8 80,479.0 120,476.3 160,469.9 200,460.1 240,447.8 280,433.8 320,419.2 360,405.0 400,392.3 440,382.1 480,375.0 520,371.6 560,372.2 600,376.7 640,384.8 680,395.8 720,409.0 760,423.4 800,438.0 840,451.6 880,463.2 920,472.1 960,477.5 1000,479.1 1040,476.7 1080,470.5 1120,461.0 1160,448.8 1200,434.9 1240,420.3" fill="none" stroke="#fff" stroke-opacity="0.16" stroke-width="4"/>
<polyline points="0,529.3 40,504.3 80,478.0 120,452.3 160,429.0 200,410.0 240,396.5 280,389.6 320,389.9 360,397.2 400,411.1 440,430.4 480,453.9 520,479.8 560,506.1 600,530.9 640,552.4 680,569.0 720,579.5 760,583.1 800,579.6 840,569.2 880,552.6 920,531.1 960,506.3 1000,480.0 1040,454.2 1080,430.7 1120,411.2 1160,397.3 1200,389.9 1240,389.6" fill="none" stroke="#fff" stroke-opacity="0.19" stroke-width="5"/>
<polyline points="0,554.9 40,568.2 80,579.9 120,589.2 160,595.4 200,597.9 240,596.7 280,591.8 320,583.6 360,572.7 400,559.8 440,546.0 480,532.3 520,519.6 560,508.9 600,501.0 640,496.5 680,495.7 720,498.6 760,505.1 800,514.6 840,526.6 880,540.0 920,553.9 960,567.2 1000,579.1 1040,588.6 1080,595.0 1120,597.8 1160,596.9 1200,592.3 1240,584.3" fill="none" stroke="#fff" stroke-opacity="0.22" stroke-width="6"/>
<circle cx="281" cy="100" r="1.5" fill="#fff" opacity="0.71"/>
<circle cx="865" cy="252" r="1.3" fill="#fff" opacity="0.46"/>
<circle cx="295" cy="265" r="1.0" fill="#fff" opacity="0.37"/>
<circle cx="41" cy="229" r="1.9" fill="#fff" opacity="0.41"/>
<circle cx="752" cy="173" r="1.1" fill="#fff" opacity="0.37"/>
<circle cx="189" cy="309" r="1.8" fill="#fff" opacity="0.86"/>
<circle cx="896" cy="291" r="1.1" fill="#fff" opacity="0.43"/>
<circle cx="244" cy="83" r="1.5" fill="#fff" opacity="0.80"/>
<circle cx="250" cy="166" r="2.1" fill="#fff" opacity="0.63"/>
<circle cx="98" cy="341" r="1.3" fill="#fff" opacity="0.46"/>
<circle cx="391" cy="84" r="1.9" fill="#fff" opacity="0.70"/>
<circle cx="957" cy="312" r="0.9" fill="#fff" opacity="0.37"/>
<circle cx="218" cy="94" r="2.4" fill="#fff" opacity="0.75"/>
<circle cx="165" cy="355" r="2.5" fill="#fff" opacity="0.88"/>
<circle cx="1009" cy="277" r="2.0" fill="#fff" opacity="0.68"/>
<circle cx="991" cy="192" r="2.3" fill="#fff" opacity="0.39"/>
<circle cx="354" cy="120" r="1.4" fill="#fff" opacity="0.61"/>
<circle cx="349" cy="32" r="1.3" fill="#fff" opacity="0.41"/>
<circle cx="879" cy="55" r="1.7" fill="#fff" opacity="0.82"/>
<circle cx="262" cy="69" r="2.5" fill="#fff" opacity="0.84"/>
<circle cx="1178" cy="136" r="1.1" fill="#fff" opacity="0.59"/>
<circle cx="168" cy="103" r="2.0" fill="#fff" opacity="0.59"/>
<circle cx="259" cy="107" r="1.4" fill="#fff" opacity="0.63"/>
<circle cx="970" cy="177" r="0.8" fill="#fff" opacity="0.76"/>
<circle cx="90" cy="247" r="1.3" fill="#fff" opacity="0.31"/>
<circle cx="971" cy="286" r="1.2" fill="#fff" opacity="0.71"/>
<circle cx="534" cy="64" r="2.4" fill="#fff" opacity="0.79"/>
<circle cx="352" cy="294" r="1.7" fill="#fff" opacity="0.63"/>
<circle cx="852" cy="317" r="0.9" fill="#fff" opacity="0.72"/>
<circle cx="1174" cy="342" r="1.1" fill="#fff" opacity="0.88"/>
<circle cx="832" cy="366" r="1.3" fill="#fff" opacity="0.49"/>
<circle cx="1168" cy="129" r="1.9" fill="#fff" opacity="0.89"/>
<circle cx="995" cy="253" r="1.0" fill="#fff" opacity="0.43"/>
<circle cx="1131" cy="147" r="0.8" fill="#fff" opacity="0.59"/>
<circle cx="296" cy="290" r="1.3" fill="#fff" opacity="0.33"/>
<circle cx="628" cy="209" r="1.3" fill="#fff" opacity="0.32"/>
<circle cx="485" cy="335" r="2.3" fill="#fff" opacity="0.79"/>
<circle cx="460" cy="133" r="2.3" fill="#fff" opacity="0.51"/>
<circle cx="107" cy="92" r="1.9" fill="#fff" opacity="0.68"/>
<circle cx="945" cy="143" r="1.9" fill="#fff" opacity="0.41"/>
<circle cx="331" cy="343" r="1.9" fill="#fff" opacity="0.56"/>
<circle cx="477" cy="388" r="1.5" fill="#fff" opacity="0.41"/>
<circle cx="602" cy="390" r="2.4" fill="#fff" opacity="0.60"/>
<circle cx="973" cy="97" r="1.9" fill="#fff" opacity="0.80"/>
<circle cx="459" cy="80" r="2.1" fill="#fff" opacity="0.89"/>
<circle cx="448" cy="152" r="2.5" fill="#fff" opacity="0.78"/>
<circle cx="215" cy="129" r="1.6" fill="#fff" opacity="0.80"/>
<circle cx="731" cy="341" r="2.0" fill="#fff" opacity="0.69"/>
<circle cx="735" cy="141" r="2.0" fill="#fff" opacity="0.40"/>
<circle cx="298" cy="271" r="1.1" fill="#fff" opacity="0.74"/>
<circle cx="769" cy="321" r="2.2" fill="#fff" opacity="0.43"/>
<circle cx="664" cy="126" r="1.1" fill="#fff" opacity="0.81"/>
<circle cx="851" cy="371" r="1.7" fill="#fff" opacity="0.68"/>
<circle cx="1019" cy="379" r="1.5" fill="#fff" opacity="0.37"/>
<circle cx="983" cy="275" r="1.6" fill="#fff" opacity="0.49"/>
<circle cx="182" cy="332" r="1.5" fill="#fff" opacity="0.82"/>
<circle cx="174" cy="232" r="0.9" fill="#fff" opacity="0.43"/>
<circle cx="540" cy="312" r="2.3" fill="#fff" opacity="0.61"/>
<circle cx="1075" cy="277" r="1.5" fill="#fff" opacity="0.74"/>
<circle cx="1033" cy="370" r="1.9" fill="#fff" opacity="0.84"/>
<circle cx="153" cy="32" r="2.6" fill="#fff" opacity="0.73"/>
<circle cx="265" cy="389" r="2.4" fill="#fff" opacity="0.83"/>
<circle cx="984" cy="53" r="1.7" fill="#fff" opacity="0.69"/>
<circle cx="1032" cy="138" r="2.4" fill="#fff" opacity="0.62"/>
<circle cx="849" cy="207" r="1.3" fill="#fff" opacity="0.69"/>
<circle cx="830" cy="183" r="2.5" fill="#fff" opacity="0.61"/>
<circle cx="82" cy="191" r="2.5" fill="#fff" opacity="0.45"/>
<circle cx="539" cy="30" r="1.9" fill="#fff" opacity="0.83"/>
<circle cx="130" cy="15" r="2.4" fill="#fff" opacity="0.30"/>
<circle cx="655" cy="202" r="1.0" fill="#fff" opacity="0.65"/>
<circle cx="936" cy="189" r="149" fill="url(#glow)"/>
</svg>